<mxfile host="app.diagrams.net" agent="Mozilla/5.0 (Macintosh; Intel Mac OS X 10_15_7) AppleWebKit/537.36 (KHTML, like Gecko) Chrome/137.0.0.0 Safari/537.36 Edg/137.0.0.0" version="28.0.4">
  <diagram name="第 1 页" id="Wapd7kW_cmqty9vh_5FS">
    <mxGraphModel dx="1946" dy="1300" grid="0" gridSize="10" guides="1" tooltips="1" connect="1" arrows="1" fold="1" page="0" pageScale="1" pageWidth="827" pageHeight="1169" math="0" shadow="0">
      <root>
        <mxCell id="0" />
        <mxCell id="1" parent="0" />
        <mxCell id="NrlZSSO5zqKxNCamtYSX-1" value="" style="group" vertex="1" connectable="0" parent="1">
          <mxGeometry x="-281" y="-183" width="185" height="331" as="geometry" />
        </mxCell>
        <mxCell id="NrlZSSO5zqKxNCamtYSX-2" value="" style="rounded=0;whiteSpace=wrap;html=1;dashed=1;container=0;" vertex="1" parent="NrlZSSO5zqKxNCamtYSX-1">
          <mxGeometry width="128" height="276" as="geometry" />
        </mxCell>
        <mxCell id="NrlZSSO5zqKxNCamtYSX-3" value="SplitInfo 1" style="rounded=1;whiteSpace=wrap;html=1;fillColor=#d5e8d4;strokeColor=#82b366;container=0;" vertex="1" parent="NrlZSSO5zqKxNCamtYSX-1">
          <mxGeometry x="16.5" y="43.5" width="101" height="23.5" as="geometry" />
        </mxCell>
        <mxCell id="NrlZSSO5zqKxNCamtYSX-4" value="&lt;b&gt;&lt;font style=&quot;font-size: 14px;&quot;&gt;src&lt;/font&gt;&lt;/b&gt;" style="text;html=1;align=center;verticalAlign=middle;whiteSpace=wrap;rounded=0;container=0;" vertex="1" parent="NrlZSSO5zqKxNCamtYSX-1">
          <mxGeometry x="10.5" y="4" width="60" height="30" as="geometry" />
        </mxCell>
        <mxCell id="NrlZSSO5zqKxNCamtYSX-5" value="ParallelInfo 1" style="rounded=1;whiteSpace=wrap;html=1;fillColor=#ffe6cc;strokeColor=#d79b00;container=0;" vertex="1" parent="NrlZSSO5zqKxNCamtYSX-1">
          <mxGeometry x="16.5" y="82" width="101" height="25" as="geometry" />
        </mxCell>
        <mxCell id="NrlZSSO5zqKxNCamtYSX-6" value="tensor shape 1" style="rounded=1;whiteSpace=wrap;html=1;fillColor=#ffe6cc;strokeColor=#d79b00;container=0;" vertex="1" parent="NrlZSSO5zqKxNCamtYSX-1">
          <mxGeometry x="16.5" y="122" width="101" height="23.5" as="geometry" />
        </mxCell>
        <mxCell id="NrlZSSO5zqKxNCamtYSX-7" value="stride 1" style="rounded=1;whiteSpace=wrap;html=1;fillColor=#ffe6cc;strokeColor=#d79b00;container=0;" vertex="1" parent="NrlZSSO5zqKxNCamtYSX-1">
          <mxGeometry x="16.5" y="158" width="101" height="23.5" as="geometry" />
        </mxCell>
        <mxCell id="NrlZSSO5zqKxNCamtYSX-22" value="offset 1" style="rounded=1;whiteSpace=wrap;html=1;fillColor=#ffe6cc;strokeColor=#d79b00;container=0;" vertex="1" parent="NrlZSSO5zqKxNCamtYSX-1">
          <mxGeometry x="16.5" y="194" width="101" height="23.5" as="geometry" />
        </mxCell>
        <mxCell id="NrlZSSO5zqKxNCamtYSX-31" value="memory shape&amp;nbsp;" style="rounded=1;whiteSpace=wrap;html=1;fillColor=#d5e8d4;strokeColor=#82b366;container=0;" vertex="1" parent="NrlZSSO5zqKxNCamtYSX-1">
          <mxGeometry x="16.5" y="230" width="101" height="23.5" as="geometry" />
        </mxCell>
        <mxCell id="NrlZSSO5zqKxNCamtYSX-36" style="edgeStyle=orthogonalEdgeStyle;rounded=0;orthogonalLoop=1;jettySize=auto;html=1;" edge="1" parent="1" source="NrlZSSO5zqKxNCamtYSX-2" target="NrlZSSO5zqKxNCamtYSX-33">
          <mxGeometry relative="1" as="geometry" />
        </mxCell>
        <mxCell id="NrlZSSO5zqKxNCamtYSX-45" style="edgeStyle=orthogonalEdgeStyle;rounded=0;orthogonalLoop=1;jettySize=auto;html=1;entryX=0;entryY=0.478;entryDx=0;entryDy=0;entryPerimeter=0;" edge="1" parent="1" source="NrlZSSO5zqKxNCamtYSX-33" target="NrlZSSO5zqKxNCamtYSX-37">
          <mxGeometry relative="1" as="geometry" />
        </mxCell>
        <mxCell id="NrlZSSO5zqKxNCamtYSX-46" value="" style="group;fillColor=#d5e8d4;strokeColor=#82b366;" vertex="1" connectable="0" parent="1">
          <mxGeometry x="84" y="-177" width="128" height="276" as="geometry" />
        </mxCell>
        <mxCell id="NrlZSSO5zqKxNCamtYSX-37" value="" style="rounded=0;whiteSpace=wrap;html=1;dashed=1;container=0;" vertex="1" parent="NrlZSSO5zqKxNCamtYSX-46">
          <mxGeometry width="128" height="276" as="geometry" />
        </mxCell>
        <mxCell id="NrlZSSO5zqKxNCamtYSX-38" value="SplitInfo 1" style="rounded=1;whiteSpace=wrap;html=1;fillColor=#d5e8d4;strokeColor=#82b366;container=0;" vertex="1" parent="NrlZSSO5zqKxNCamtYSX-46">
          <mxGeometry x="16.5" y="43.5" width="101" height="23.5" as="geometry" />
        </mxCell>
        <mxCell id="NrlZSSO5zqKxNCamtYSX-39" value="&lt;b&gt;&lt;font style=&quot;font-size: 14px;&quot;&gt;mid&lt;/font&gt;&lt;/b&gt;" style="text;html=1;align=center;verticalAlign=middle;whiteSpace=wrap;rounded=0;container=0;" vertex="1" parent="NrlZSSO5zqKxNCamtYSX-46">
          <mxGeometry x="10.5" y="4" width="63.5" height="30" as="geometry" />
        </mxCell>
        <mxCell id="NrlZSSO5zqKxNCamtYSX-40" value="ParallelInfo 2" style="rounded=1;whiteSpace=wrap;html=1;fillColor=#d5e8d4;strokeColor=#82b366;container=0;" vertex="1" parent="NrlZSSO5zqKxNCamtYSX-46">
          <mxGeometry x="16.5" y="82" width="101" height="25" as="geometry" />
        </mxCell>
        <mxCell id="NrlZSSO5zqKxNCamtYSX-41" value="tensor shape 2" style="rounded=1;whiteSpace=wrap;html=1;fillColor=#d5e8d4;strokeColor=#82b366;container=0;" vertex="1" parent="NrlZSSO5zqKxNCamtYSX-46">
          <mxGeometry x="16.5" y="122" width="101" height="23.5" as="geometry" />
        </mxCell>
        <mxCell id="NrlZSSO5zqKxNCamtYSX-42" value="stride 2" style="rounded=1;whiteSpace=wrap;html=1;fillColor=#d5e8d4;strokeColor=#82b366;container=0;" vertex="1" parent="NrlZSSO5zqKxNCamtYSX-46">
          <mxGeometry x="16.5" y="158" width="101" height="23.5" as="geometry" />
        </mxCell>
        <mxCell id="NrlZSSO5zqKxNCamtYSX-43" value="offset 2" style="rounded=1;whiteSpace=wrap;html=1;fillColor=#d5e8d4;strokeColor=#82b366;container=0;" vertex="1" parent="NrlZSSO5zqKxNCamtYSX-46">
          <mxGeometry x="16.5" y="194" width="101" height="23.5" as="geometry" />
        </mxCell>
        <mxCell id="NrlZSSO5zqKxNCamtYSX-44" value="memory shape&amp;nbsp;" style="rounded=1;whiteSpace=wrap;html=1;fillColor=#d5e8d4;strokeColor=#82b366;container=0;" vertex="1" parent="NrlZSSO5zqKxNCamtYSX-46">
          <mxGeometry x="16.5" y="230" width="101" height="23.5" as="geometry" />
        </mxCell>
        <mxCell id="NrlZSSO5zqKxNCamtYSX-62" value="" style="group" vertex="1" connectable="0" parent="1">
          <mxGeometry x="-356" y="-286" width="125" height="63.25" as="geometry" />
        </mxCell>
        <mxCell id="NrlZSSO5zqKxNCamtYSX-48" value="" style="rounded=1;whiteSpace=wrap;html=1;fillColor=#d5e8d4;strokeColor=#82b366;container=0;" vertex="1" parent="NrlZSSO5zqKxNCamtYSX-62">
          <mxGeometry x="1" y="2.25" width="43" height="24.5" as="geometry" />
        </mxCell>
        <mxCell id="NrlZSSO5zqKxNCamtYSX-50" value="&lt;b&gt;&lt;font style=&quot;font-size: 14px;&quot;&gt;: 已知变量&lt;/font&gt;&lt;/b&gt;" style="text;html=1;align=center;verticalAlign=middle;whiteSpace=wrap;rounded=0;" vertex="1" parent="NrlZSSO5zqKxNCamtYSX-62">
          <mxGeometry x="50" width="75" height="30" as="geometry" />
        </mxCell>
        <mxCell id="NrlZSSO5zqKxNCamtYSX-60" value="" style="rounded=1;whiteSpace=wrap;html=1;fillColor=#ffe6cc;strokeColor=#d79b00;container=0;" vertex="1" parent="NrlZSSO5zqKxNCamtYSX-62">
          <mxGeometry y="35.5" width="43" height="24.5" as="geometry" />
        </mxCell>
        <mxCell id="NrlZSSO5zqKxNCamtYSX-61" value="&lt;b&gt;&lt;font style=&quot;font-size: 14px;&quot;&gt;: 未知变量&lt;/font&gt;&lt;/b&gt;" style="text;html=1;align=center;verticalAlign=middle;whiteSpace=wrap;rounded=0;" vertex="1" parent="NrlZSSO5zqKxNCamtYSX-62">
          <mxGeometry x="49" y="33.25" width="75" height="30" as="geometry" />
        </mxCell>
        <mxCell id="NrlZSSO5zqKxNCamtYSX-75" value="" style="group" vertex="1" connectable="0" parent="1">
          <mxGeometry x="-96" y="-94" width="120" height="96.5" as="geometry" />
        </mxCell>
        <mxCell id="NrlZSSO5zqKxNCamtYSX-33" value="" style="rounded=1;whiteSpace=wrap;html=1;fillColor=#e1d5e7;strokeColor=#9673a6;" vertex="1" parent="NrlZSSO5zqKxNCamtYSX-75">
          <mxGeometry width="120" height="96.5" as="geometry" />
        </mxCell>
        <mxCell id="NrlZSSO5zqKxNCamtYSX-64" value="&lt;b style=&quot;font-size: 14px;&quot;&gt;view-like 算子&lt;/b&gt;" style="text;html=1;align=center;verticalAlign=middle;whiteSpace=wrap;rounded=0;" vertex="1" parent="NrlZSSO5zqKxNCamtYSX-75">
          <mxGeometry x="13.5" y="7.5" width="93" height="30" as="geometry" />
        </mxCell>
        <mxCell id="NrlZSSO5zqKxNCamtYSX-74" value="args0, args1 ..." style="rounded=1;whiteSpace=wrap;html=1;fillColor=#ffe6cc;strokeColor=#d79b00;container=0;" vertex="1" parent="NrlZSSO5zqKxNCamtYSX-75">
          <mxGeometry x="9.5" y="51.5" width="101" height="23.5" as="geometry" />
        </mxCell>
        <mxCell id="NrlZSSO5zqKxNCamtYSX-79" value="" style="group;fillColor=#ffe6cc;strokeColor=#d79b00;" vertex="1" connectable="0" parent="1">
          <mxGeometry x="451" y="-177" width="128" height="276" as="geometry" />
        </mxCell>
        <mxCell id="NrlZSSO5zqKxNCamtYSX-80" value="" style="rounded=0;whiteSpace=wrap;html=1;dashed=1;container=0;" vertex="1" parent="NrlZSSO5zqKxNCamtYSX-79">
          <mxGeometry width="128" height="276" as="geometry" />
        </mxCell>
        <mxCell id="NrlZSSO5zqKxNCamtYSX-81" value="SplitInfo 2" style="rounded=1;whiteSpace=wrap;html=1;fillColor=#ffe6cc;strokeColor=#d79b00;container=0;" vertex="1" parent="NrlZSSO5zqKxNCamtYSX-79">
          <mxGeometry x="16.5" y="43.5" width="101" height="23.5" as="geometry" />
        </mxCell>
        <mxCell id="NrlZSSO5zqKxNCamtYSX-82" value="&lt;b&gt;&lt;font style=&quot;font-size: 14px;&quot;&gt;dst&lt;/font&gt;&lt;/b&gt;" style="text;html=1;align=center;verticalAlign=middle;whiteSpace=wrap;rounded=0;container=0;" vertex="1" parent="NrlZSSO5zqKxNCamtYSX-79">
          <mxGeometry x="10.5" y="4" width="63.5" height="30" as="geometry" />
        </mxCell>
        <mxCell id="NrlZSSO5zqKxNCamtYSX-83" value="ParallelInfo 2" style="rounded=1;whiteSpace=wrap;html=1;fillColor=#d5e8d4;strokeColor=#82b366;container=0;" vertex="1" parent="NrlZSSO5zqKxNCamtYSX-79">
          <mxGeometry x="16.5" y="82" width="101" height="25" as="geometry" />
        </mxCell>
        <mxCell id="NrlZSSO5zqKxNCamtYSX-84" value="tensor shape 2" style="rounded=1;whiteSpace=wrap;html=1;fillColor=#d5e8d4;strokeColor=#82b366;container=0;" vertex="1" parent="NrlZSSO5zqKxNCamtYSX-79">
          <mxGeometry x="16.5" y="122" width="101" height="23.5" as="geometry" />
        </mxCell>
        <mxCell id="NrlZSSO5zqKxNCamtYSX-85" value="stride 3" style="rounded=1;whiteSpace=wrap;html=1;fillColor=#ffe6cc;strokeColor=#d79b00;container=0;" vertex="1" parent="NrlZSSO5zqKxNCamtYSX-79">
          <mxGeometry x="16.5" y="158" width="101" height="23.5" as="geometry" />
        </mxCell>
        <mxCell id="NrlZSSO5zqKxNCamtYSX-86" value="offset 3" style="rounded=1;whiteSpace=wrap;html=1;fillColor=#ffe6cc;strokeColor=#d79b00;container=0;" vertex="1" parent="NrlZSSO5zqKxNCamtYSX-79">
          <mxGeometry x="16.5" y="194" width="101" height="23.5" as="geometry" />
        </mxCell>
        <mxCell id="NrlZSSO5zqKxNCamtYSX-87" value="memory shape&amp;nbsp;" style="rounded=1;whiteSpace=wrap;html=1;fillColor=#d5e8d4;strokeColor=#82b366;container=0;" vertex="1" parent="NrlZSSO5zqKxNCamtYSX-79">
          <mxGeometry x="16.5" y="230" width="101" height="23.5" as="geometry" />
        </mxCell>
        <mxCell id="NrlZSSO5zqKxNCamtYSX-91" style="edgeStyle=orthogonalEdgeStyle;rounded=0;orthogonalLoop=1;jettySize=auto;html=1;entryX=0;entryY=0.5;entryDx=0;entryDy=0;" edge="1" parent="1" source="NrlZSSO5zqKxNCamtYSX-88" target="NrlZSSO5zqKxNCamtYSX-80">
          <mxGeometry relative="1" as="geometry" />
        </mxCell>
        <mxCell id="NrlZSSO5zqKxNCamtYSX-88" value="&lt;font style=&quot;font-size: 14px;&quot;&gt;&lt;b&gt;contiguous&lt;/b&gt;&lt;/font&gt;" style="rounded=1;whiteSpace=wrap;html=1;fillColor=#fff2cc;strokeColor=#d6b656;" vertex="1" parent="1">
          <mxGeometry x="278" y="-69" width="120" height="60" as="geometry" />
        </mxCell>
        <mxCell id="NrlZSSO5zqKxNCamtYSX-89" style="edgeStyle=orthogonalEdgeStyle;rounded=0;orthogonalLoop=1;jettySize=auto;html=1;entryX=0;entryY=0.5;entryDx=0;entryDy=0;" edge="1" parent="1" source="NrlZSSO5zqKxNCamtYSX-37" target="NrlZSSO5zqKxNCamtYSX-88">
          <mxGeometry relative="1" as="geometry" />
        </mxCell>
        <mxCell id="NrlZSSO5zqKxNCamtYSX-92" value="&lt;h1 style=&quot;margin-top: 0px;&quot;&gt;thnn::view-like ( dst, src, args0, args1, ... )&lt;/h1&gt;" style="text;html=1;whiteSpace=wrap;overflow=hidden;rounded=0;" vertex="1" parent="1">
          <mxGeometry x="-128" y="-272" width="592" height="120" as="geometry" />
        </mxCell>
      </root>
    </mxGraphModel>
  </diagram>
</mxfile>
